Coordinates
version=1
nRows=8
nColumns=40
inDegrees=yes

Units are S.I. units (second, meters, Newtons, ...)
Angles are in degrees.

endheader
time	pelvis_tilt	pelvis_list	pelvis_rotation	pelvis_tx	pelvis_ty	pelvis_tz	hip_flexion_r	hip_adduction_r	hip_rotation_r	knee_angle_r	knee_angle_r_beta	ankle_angle_r	subtalar_angle_r	mtp_angle_r	hip_flexion_l	hip_adduction_l	hip_rotation_l	knee_angle_l	knee_angle_l_beta	ankle_angle_l	subtalar_angle_l	mtp_angle_l	lumbar_extension	lumbar_bending	lumbar_rotation	arm_flex_r	arm_add_r	arm_rot_r	elbow_flex_r	pro_sup_r	wrist_flex_r	wrist_dev_r	arm_flex_l	arm_add_l	arm_rot_l	elbow_flex_l	pro_sup_l	wrist_flex_l	wrist_dev_l
     15.95778571	     -4.86816015	     -3.77617803	     -2.62954572	      0.74995368	      0.92603804	      0.44445561	     28.58249229	     -2.18375223	    -12.25099285	     19.82579026	     19.82579026	      0.53555068	     -2.31289493	      2.12958699	      5.01439856	     -3.84651737	     -8.47700235	     17.07314629	     17.07314629	     18.41797313	     -6.25775654	     -1.97573347	     -9.94466366	      6.72829098	      1.48433291	    -17.03419942	    -11.72405646	    -16.07371498	     22.39092689	     47.65916256	      0.00000000	      0.00000000	     22.15122702	    -16.41364207	     -8.73197030	     66.61249446	     47.29986406	      0.00000000	      0.00000000
     15.97057143	     -4.99276062	     -3.63724569	     -2.69905378	      0.75058808	      0.92491823	      0.44602926	     27.81341808	     -1.96773175	    -12.97079982	     17.14722673	     17.14722673	      0.68089639	     -0.16743745	      3.05333253	      4.44595746	     -3.79312220	     -8.76541200	     16.72737671	     16.72737671	     18.71861534	     -5.79757342	     -2.22103979	     -9.85113743	      6.53283789	      1.53511823	    -17.72765512	    -11.60653665	    -16.19051184	     22.54425255	     47.64222963	      0.00000000	      0.00000000	     22.37857220	    -16.36459751	     -8.91090925	     67.32498678	     47.32959175	      0.00000000	      0.00000000
     15.98335714	     -5.09738109	     -3.53485710	     -2.74455249	      0.75146111	      0.92382190	      0.44768591	     27.15092585	     -1.80180529	    -13.88643491	     15.19862446	     15.19862446	      0.96852412	      1.94625011	      4.32051363	      3.82133921	     -3.80185096	     -9.12716163	     16.35196056	     16.35196056	     18.99421442	     -5.13524870	     -2.51825733	     -9.71465412	      6.39029276	      1.55308740	    -18.35496177	    -11.54182024	    -16.40493129	     22.98825557	     47.60842795	      0.00000000	      0.00000000	     22.34812253	    -16.27797730	     -9.22188419	     68.19562485	     47.37743554	      0.00000000	      0.00000000
     15.99614286	     -5.21278071	     -3.48582306	     -2.79085019	      0.75240098	      0.92273038	      0.44960068	     26.58099011	     -1.51871550	    -14.28633957	     13.76491303	     13.76491303	      0.89108540	      2.95226677	      4.78577731	      3.22665410	     -3.85166145	     -9.28588922	     16.01635677	     16.01635677	     19.26069869	     -4.82949916	     -2.62292643	     -9.55482832	      6.30226549	      1.58995280	    -18.60989455	    -11.47396828	    -16.45680196	     23.05101956	     47.59567499	      0.00000000	      0.00000000	     22.38020749	    -16.20692557	     -9.34201398	     68.56956588	     47.39741797	      0.00000000	      0.00000000
     16.00892857	     -5.40020466	     -3.41500052	     -2.84880396	      0.75340216	      0.92158957	      0.45166560	     26.25440615	     -1.31412247	    -14.54598655	     13.00383110	     13.00383110	      0.74849707	      3.60123531	      4.83716280	      2.69158002	     -3.88592756	     -9.44960779	     15.64534419	     15.64534419	     19.50864956	     -4.49710750	     -2.67997031	     -9.29217580	      6.20216700	      1.63234790	    -18.66944168	    -11.38820368	    -16.47455190	     23.09105133	     47.58734876	      0.00000000	      0.00000000	     22.30590732	    -16.09228075	     -9.41628236	     68.80926822	     47.40908700	      0.00000000	      0.00000000
     16.02171429	     -5.57351725	     -3.35351985	     -2.86757033	      0.75438967	      0.92042182	      0.45380170	     26.16047381	     -1.18500295	    -14.62050697	     13.02207563	     13.02207563	      0.71677982	      3.60361026	      4.82612872	      2.34016970	     -3.95041751	     -9.45744245	     15.64588123	     15.64588123	     19.73588521	     -4.53457771	     -2.75076314	     -9.02554704	      6.10667857	      1.67231395	    -18.59039739	    -11.36891170	    -16.47194024	     23.12392086	     47.58594060	      0.00000000	      0.00000000	     22.29332274	    -16.06784659	     -9.41613060	     68.82779641	     47.40942954	      0.00000000	      0.00000000
     16.03450000	     -5.75140787	     -3.44667946	     -2.92486874	      0.75554483	      0.91946336	      0.45619704	     26.00074831	     -0.89813174	    -14.67423942	     13.17792140	     13.17792140	      0.72100455	      3.66087117	      4.59661230	      1.84264926	     -4.18328969	     -9.52026827	     15.39091232	     15.39091232	     20.01363864	     -4.43084464	     -2.76776490	     -8.80902715	      6.19502161	      1.79608460	    -18.18675924	    -11.23117797	    -16.44349721	     23.25670797	     47.57927886	      0.00000000	      0.00000000	     22.02847883	    -15.82083387	     -9.36811688	     68.81255689	     47.40433504	      0.00000000	      0.00000000
     16.04728571	     -5.62633881	     -3.39295982	     -2.95886931	      0.75714130	      0.91894555	      0.45864596	     25.45764674	     -0.75044749	    -14.51740822	     13.27018189	     13.27018189	     -1.06996937	      2.91533140	     -1.16475325	      0.96532099	     -4.33235344	    -10.18800564	     15.14254451	     15.14254451	     20.62643872	     -3.15055594	     -1.98113859	     -8.86404662	      6.10746125	      1.37267137	    -17.19715351	    -11.35112172	    -16.29494882	     22.72865115	     47.55079714	      0.00000000	      0.00000000	     21.09639203	    -15.76784115	    -10.47103967	     69.65543372	     47.50730781	      0.00000000	      0.00000000
